<svg width="42" height="40" viewBox="0 0 42 40" fill="none" xmlns="http://www.w3.org/2000/svg">
<path d="M12.5 3.4H3.5V12.4H12.5V3.4Z" fill="#FFFFFF"/>
<path d="M25 3.4H16V12.4H25V3.4Z" fill="#FFFFFF"/>
<path d="M12.5 15.4H3.5V24.4H12.5V15.4Z" fill="#FFFFFF"/>
<path d="M25 15.4H16V24.4H25V15.4Z" fill="#FFFFFF"/>
<path d="M37.3999 15.4H28.3999V24.4H37.3999V15.4Z" fill="#FFFFFF"/>
<path d="M12 27.9H4V35.9H12V27.9Z" fill="#FFFFFF" stroke="#FFFFFF"/>
<path d="M16 27.4H25V36.4H16V27.4Z" fill="#FFFFFF"/>
<path d="M37.3999 27.4H28.3999V36.4H37.3999V27.4Z" fill="#FFFFFF"/>
<path d="M41.1 38.2H1.5V39.9H41.1V38.2Z" fill="#FFFFFF"/>
<path d="M41.1 0H1.5V1.7H41.1V0Z" fill="#FFFFFF"/>
<path d="M0 0H1.7V39.9H0V0Z" fill="#FFFFFF"/>
<path d="M39.3999 1.5H41.0999V38.3H39.3999V1.5Z" fill="#FFFFFF"/>
<path d="M37.3999 3.4H28.3999V12.4H37.3999V3.4Z" fill="#007AB5"
/>
</svg>